:SAMPLES-PER-SECOND 30
:FRAME-RANGE 1-1086
:FULLY-SPECIFIED
:DEGREES
136
root  -37.4427 39.6844 -87.9203 176.449 64.5989 177.275
RightUpLeg  -14.3342 -1.75436 -4.07632
RightLeg  25.2228 -7.79321 -4.19983
RightFoot  -7.97044 -0.370676 10.7201
RightToes  -5.8209e-011 0 -3.6325e-017
Spine  6.9578 -0.374696 -5.9071
Spine1  0.235353 -0.244872 -2.73081
HEad  13.9139 27.8866 0.0971719
LeftShoulder1  2.22248 -2.54798 -30.6934
LeftArm  50.6857 -36.5718 -59.9675
LeftForeArm  -6.75328 -18.1575 -10.263
LeftHand  0.192154 -2.71707 -2.5466
RightShoulder  11.7505 20.955 41.6923
RightArm  14.7687 15.828 14.6297
RightForeArm  2.25684 17.6439 8.66575
RightHand  -0.0343196 3.13967 -0.700079
LeftUpLeg  -4.35421 9.31149 0.774453
LeftLeg  10.5549 1.46532 -5.00524
LeftFoot  -7.20536 0.228181 -5.12134
LeftToes  5.72949e-011 5.22586e-011 2.45399e-011
137
root  -37.2791 39.678 -87.8775 176.522 64.0309 177.545
RightUpLeg  -14.9828 0.474731 -5.38931
RightLeg  25.8884 -6.3025 -3.53784
RightFoot  -7.81851 -0.393758 11.0375
RightToes  -5.8209e-011 0 -3.6325e-017
Spine  7.05403 -0.392389 -5.85675
Spine1  0.113393 -0.335882 -2.43628
HEad  13.214 31.4339 -0.723814
LeftShoulder1  2.18476 -2.45201 -30.6502
LeftArm  53.6167 -35.5786 -61.4394
LeftForeArm  -8.69563 -20.126 -8.20852
LeftHand  0.187009 -2.90525 -2.4462
RightShoulder  11.471 19.9231 42.5767
RightArm  19.0282 14.4961 14.8262
RightForeArm  -0.294903 18.9224 7.82316
RightHand  -0.00161832 3.24496 -0.259341
LeftUpLeg  -4.13212 9.29524 1.08417
LeftLeg  10.9826 0.542911 -4.92552
LeftFoot  -8.10607 0.231297 -6.46687
LeftToes  5.72949e-011 5.22586e-011 2.45399e-011
138
root  -37.075 39.6587 -87.8019 176.42 63.1104 177.568
RightUpLeg  -15.3143 2.87532 -7.00536
RightLeg  25.5783 -5.18107 -2.91384
RightFoot  -7.7116 -0.409501 11.2292
RightToes  -5.8209e-011 0 -3.6325e-017
Spine  7.17881 -0.357866 -5.80078
Spine1  -0.0584864 -0.357943 -2.19251
HEad  12.4455 33.9353 -1.65522
LeftShoulder1  2.14608 -2.33754 -30.7064
LeftArm  56.1271 -33.9358 -62.4434
LeftForeArm  -9.89311 -21.5791 -6.76459
LeftHand  0.181243 -3.00105 -2.28688
RightShoulder  11.3379 19.1114 43.6758
RightArm  19.8336 13.0437 14.6747
RightForeArm  -0.00157274 18.2876 8.41102
RightHand  0.0765141 3.41476 0.763876
LeftUpLeg  -3.9169 9.68382 1.52103
LeftLeg  11.3635 -0.8358 -5.35275
LeftFoot  -8.70759 0.217369 -7.18197
LeftToes  5.72949e-011 5.22586e-011 2.45399e-011
139
root  -36.8294 39.6453 -87.6909 176.238 61.6691 177.478
RightUpLeg  -15.1434 5.28158 -8.80218
RightLeg  24.2664 -4.66574 -2.50986
RightFoot  -7.9529 -0.384269 11.1243
RightToes  -5.8209e-011 0 -3.6325e-017
Spine  7.11343 -0.295089 -5.63385
Spine1  0.123689 -0.295572 -2.14005
HEad  11.7031 35.1409 -2.76971
LeftShoulder1  2.12628 -2.29086 -30.6597
LeftArm  58.3059 -32.0147 -63.2756
LeftForeArm  -10.4218 -22.2518 -6.21999
LeftHand  0.177253 -3.19216 -2.16729
RightShoulder  11.2898 18.4068 44.9664
RightArm  16.499 11.5906 14.1624
RightForeArm  3.20396 15.7731 10.3356
RightHand  0.170667 3.70516 1.92045
LeftUpLeg  -3.67586 9.89804 1.91791
LeftLeg  11.6158 -2.73575 -5.77854
LeftFoot  -9.27246 0.204864 -8.26325
LeftToes  5.72949e-011 5.22586e-011 2.45399e-011
140
root  -36.5608 39.6345 -87.5407 175.983 59.7868 177.206
RightUpLeg  -14.5692 7.74154 -10.7053
RightLeg  22.0711 -4.92705 -2.40406
RightFoot  -7.90838 -0.387285 11.0906
RightToes  -5.8209e-011 0 -3.6325e-017
Spine  7.11006 -0.219181 -5.39419
Spine1  0.299786 -0.198838 -2.14436
HEad  11.127 35.5628 -3.88169
LeftShoulder1  2.09939 -2.19257 -30.8213
LeftArm  60.5795 -30.1174 -63.5108
LeftForeArm  -11.2865 -22.0626 -6.44429
LeftHand  0.205384 -3.4746 -2.44625
RightShoulder  11.1967 17.7036 46.1304
RightArm  11.2905 10.2901 13.722
RightForeArm  7.09098 11.9386 12.7647
RightHand  0.197089 3.67085 2.26852
LeftUpLeg  -3.59959 9.97186 2.14482
LeftLeg  11.8289 -4.81593 -6.11263
LeftFoot  -9.52714 0.200366 -9.04236
LeftToes  5.72949e-011 5.22586e-011 2.45399e-011
141
root  -36.2624 39.6219 -87.3343 175.782 57.5277 176.982
RightUpLeg  -13.6033 10.8893 -12.5219
RightLeg  19.2419 -5.55503 -2.3572
RightFoot  -7.60124 -0.411799 10.9922
RightToes  -5.8209e-011 0 -3.6325e-017
Spine  7.27984 -0.102512 -4.98706
Spine1  0.486377 -0.0261497 -2.2843
HEad  10.4883 35.2429 -4.82029
LeftShoulder1  2.07198 -2.1149 -30.8423
LeftArm  61.6817 -28.2202 -63.5485
LeftForeArm  -11.8238 -20.869 -7.69871
LeftHand  0.228412 -3.45005 -2.75758
RightShoulder  11.0992 17.0089 47.3197
RightArm  5.93397 9.2176 13.1891
RightForeArm  11.4809 7.50861 14.653
RightHand  0.211849 3.53516 2.50477
LeftUpLeg  -3.66113 10.2473 2.37813
LeftLeg  12.1412 -7.30266 -6.49851
LeftFoot  -9.38955 0.212455 -9.16136
LeftToes  5.72949e-011 5.22586e-011 2.45399e-011
142
root  -35.9296 39.6069 -87.0707 175.793 55.0976 176.923
RightUpLeg  -12.492 15.1302 -13.9527
RightLeg  16.2198 -6.29636 -2.26712
RightFoot  -7.05482 -0.454333 10.8232
RightToes  -5.8209e-011 0 -3.6325e-017
Spine  7.56685 0.0298053 -4.22796
Spine1  0.700261 0.244055 -2.72808
HEad  9.68177 34.7156 -6.00795
LeftShoulder1  2.0638 -2.04514 -31.1605
LeftArm  59.1629 -26.7112 -62.6489
LeftForeArm  -9.52445 -18.3264 -10.442
LeftHand  0.274883 -3.46026 -3.36365
RightShoulder  11.1292 16.5973 48.4429
RightArm  0.806127 8.2492 12.7293
RightForeArm  16.1348 2.91625 15.6046
RightHand  0.252749 3.59934 3.00998
LeftUpLeg  -3.94627 10.307 2.54939
LeftLeg  12.5013 -9.6279 -6.54634
LeftFoot  -9.08607 0.234908 -9.15925
LeftToes  5.72949e-011 5.22586e-011 2.45399e-011
143
root  -35.5243 39.5531 -86.7299 175.862 52.3242 176.81
RightUpLeg  -11.2941 16.5813 -14.2086
RightLeg  13.6847 -2.00711 -1.7828
RightFoot  -6.48909 -0.567078 12.2937
RightToes  -5.8209e-011 0 -3.6325e-017
Spine  7.81341 0.14326 -3.71541
Spine1  1.1153 0.479768 -3.14178
HEad  8.38647 34.2009 -7.42182
LeftShoulder1  2.05622 -1.97953 -31.4684
LeftArm  58.53 -25.2366 -60.8007
LeftForeArm  -10.4485 -16.5727 -12.4309
LeftHand  0.275474 -2.85334 -3.66876
RightShoulder  11.1683 16.378 49.1573
RightArm  -1.46495 7.15082 12.8828
RightForeArm  17.7555 -0.0206889 15.8943
RightHand  0.2653 3.52867 3.20225
LeftUpLeg  -4.63778 10.3944 2.71036
LeftLeg  13.354 -12.2516 -6.65579
LeftFoot  -8.86472 0.247109 -8.96553
LeftToes  5.72949e-011 5.22586e-011 2.45399e-011
